<?xml version="1.0" standalone="no"?>
<!DOCTYPE svg PUBLIC "-//W3C//DTD SVG 20010904//EN"
 "http://www.w3.org/TR/2001/REC-SVG-20010904/DTD/svg10.dtd">
<svg version="1.0" xmlns="http://www.w3.org/2000/svg"
 width="840.000000pt" height="541.000000pt" viewBox="0 0 840.000000 541.000000"
 preserveAspectRatio="xMidYMid meet">

<g transform="translate(0.000000,541.000000) scale(0.100000,-0.100000)"
fill="#000000" stroke="none">
<path d="M4070 4989 c-425 -21 -846 -170 -1205 -428 -373 -267 -671 -664 -821
-1096 -213 -610 -154 -1317 155 -1860 18 -33 39 -69 45 -80 145 -258 427 -555
691 -729 378 -249 758 -371 1195 -383 164 -4 204 -2 350 21 297 45 515 114
755 235 236 120 385 230 591 435 291 292 479 620 588 1026 165 621 51 1302
-310 1845 -144 217 -315 396 -544 571 -320 244 -789 418 -1185 440 -49 3 -108
6 -130 7 -22 1 -101 -1 -175 -4z m268 -2571 c97 -34 169 -98 217 -192 38 -74
40 -84 40 -165 0 -76 -4 -94 -31 -151 -62 -128 -152 -199 -281 -222 -171 -29
-329 52 -409 210 -26 52 -29 66 -29 162 0 96 3 110 28 161 90 178 285 260 465
197z m-2091 -232 c74 -42 339 -158 448 -196 294 -102 529 -159 845 -205 152
-22 177 -28 193 -48 128 -159 233 -225 398 -248 186 -27 359 29 487 158 37 37
76 81 87 96 19 26 29 29 156 47 424 62 816 182 1225 375 53 25 98 44 101 41 6
-5 -39 -149 -74 -236 -163 -412 -398 -716 -763 -988 -58 -43 -212 -131 -310
-176 -185 -85 -332 -131 -545 -169 -174 -31 -471 -30 -640 1 -561 103 -1024
397 -1353 860 -29 39 -52 75 -52 78 0 3 -9 18 -19 32 -79 112 -241 502 -241
582 0 25 6 25 57 -4z"/>
</g>
</svg>
